<svg width="64" height="64" viewBox="0 0 64 64" fill="none" xmlns="http://www.w3.org/2000/svg">
  <path d="M14 13C11.7909 13 10 14.7909 10 17V41C10 43.2091 11.7909 45 14 45H19L17 51H22L25 45H39L42 51H47L45 45H50C52.2091 45 54 43.2091 54 41V17C54 14.7909 52.2091 13 50 13H14Z" fill="#05070A"/>
  <rect x="15" y="18" width="12" height="2" rx="1" fill="#121722"/>
  <rect x="29" y="18" width="12" height="2" rx="1" fill="#121722"/>
  <rect x="43" y="18" width="6" height="2" rx="1" fill="#121722"/>
  <rect x="42.5" y="22.5" width="10" height="10" rx="1.5" fill="#10151E"/>
  <rect x="42.5" y="35.5" width="10" height="6.5" rx="1.5" fill="#10151E"/>
  <rect x="29" y="38" width="12" height="2.5" rx="1.25" fill="#121722"/>
  <path d="M30 28C29.1716 28 28.5 28.6716 28.5 29.5V34.5C28.5 35.3284 29.1716 36 30 36H35V40.8229C35 42.1593 36.6161 42.8286 37.5607 41.8839L45.9445 33.5001C46.5303 32.9143 46.5303 31.9645 45.9445 31.3788L37.5607 22.9949C36.6161 22.0503 35 22.7195 35 24.0559V28H30Z" fill="#0EA5FF"/>
</svg>
